# xmcd CD database file
#
# Track frame offsets:
#	150
#	17702
#	35567
#	53276
#	71464
#	89203
#	107098
#	124725
#	143628
#	161513
#	178915
#	195781
#	213281
#	231038
#
# Disc length: 3285 seconds
#
# Revision: 0
# Processed by: cddbd v1.5.2PL0 Copyright (c) Steve Scherf et al.
# Submitted via: CDex 1.51
#
DISCID=b70cd30e
DTITLE=Jason Dean - Jason Dean  LIVE
DYEAR=2003
DGENRE=Country
TTITLE0=Double Bogey Blues
TTITLE1=Lion Sleeps Tonight
TTITLE2=I´d Really Love To See You Tonight
TTITLE3=Who´s Cheatin´Who
TTITLE4=Sounds of Silence
TTITLE5=Mexican Love Songs
TTITLE6=Imagine
TTITLE7=Don´t Worry Be Happy
TTITLE8=That´s Life
TTITLE9=I´m Gonna Find It Where I Can
TTITLE10=Baby Don´t Get Hooked On Me
TTITLE11=I Saw the Light (in Sweden with Richard Björk)
TTITLE12=Can You Feel The Love Tonight (after party in Sydney)
TTITLE13=Fire and Rain (after party in Sydney)
EXTD=YEAR: 2003
EXTT0=
EXTT1=
EXTT2=
EXTT3=
EXTT4=
EXTT5=
EXTT6=
EXTT7=
EXTT8=
EXTT9=
EXTT10=
EXTT11=
EXTT12=
EXTT13=
PLAYORDER=
